<?xml version="1.0" encoding="utf-8"?>
<!-- Generator: Adobe Illustrator 23.1.0, SVG Export Plug-In . SVG Version: 6.00 Build 0)  -->
<svg version="1.1" xmlns="http://www.w3.org/2000/svg" xmlns:xlink="http://www.w3.org/1999/xlink" x="0px" y="0px"
	 viewBox="0 0 232.09 183.83" style="enable-background:new 0 0 232.09 183.83;" xml:space="preserve">
<style type="text/css">
	.st0{fill:#F47422;}
</style>
<g id="Layer_1">
	<path class="st0" d="M117.89,59.83l-50.45,56.6c-1,1.13-1.04,2.81-0.08,3.98l2.21,2.7c1.19,1.45,3.39,1.5,4.65,0.11l31.13-34.55
		c0.36-0.4,0.82-0.7,1.33-0.86c4.97-1.61,31.16-8.54,29.88,25.46c-0.03,0.67-0.28,1.31-0.7,1.83l-40.85,49.69
		c-1.64,2-0.22,5.01,2.37,5.01H192c1.69,0,3.06-1.37,3.06-3.06v-1.02c0-1.69-1.37-3.06-3.06-3.06h-41.87
		c-1.69,0-3.06-1.37-3.06-3.06v-2.72c0-1.69,1.37-3.06,3.06-3.06h31.66c1.69,0,3.06-1.37,3.06-3.06V148c0-1.69-1.37-3.06-3.06-3.06
		h-24.85c-1.69,0-3.06-1.37-3.06-3.06v-2.72c0-1.69,1.37-3.06,3.06-3.06h64c1.69,0,3.06-1.37,3.06-3.06v-1.7
		c0-1.69-1.37-3.06-3.06-3.06h-34.04c-1.69,0-3.06-1.37-3.06-3.06v-4.09c0-1.69,1.37-3.06,3.06-3.06h7.83
		c1.69,0,3.06-1.37,3.06-3.06v-2.72c0-1.69-1.37-3.06-3.06-3.06h-30.98c-1.69,0-3.06-1.37-3.06-3.06v-3.06
		c0-1.69,1.37-3.06,3.06-3.06h24.17c1.69,0,3.06-1.37,3.06-3.06v-2.72c0-1.69-1.37-3.06-3.06-3.06h-14.98
		c-1.69,0-3.06-1.37-3.06-3.06v-3.06c0-1.69,1.37-3.06,3.06-3.06h21.45c1.69,0,3.06-1.37,3.06-3.06v-3.74
		c0-1.69-1.37-3.06-3.06-3.06h-35.74c-1.69,0-3.06-1.37-3.06-3.06v0c0-1.69,1.37-3.06,3.06-3.06h7.49c1.69,0,3.06-1.37,3.06-3.06
		v-1.02c0-1.69-1.37-3.06-3.06-3.06h-45.95C119.31,58.81,118.48,59.18,117.89,59.83z"/>
	<path d="M59.23,52.68h12.01c0,0-3.16-24.51,23.39-26.89s25.15,26.89,25.15,26.89h9.23c0,0-0.34-38.81-34.89-38.13
		S59.23,52.68,59.23,52.68z"/>
</g>
<g id="Layer_2">
	<path d="M33.9,63.2L22.73,164.31c-0.32,2.92,1.97,5.48,4.91,5.48h40.52c1.46,0,2.85-0.65,3.79-1.78l46.7-56.04
		c1.63-1.96,1.5-4.84-0.3-6.65l0,0c-2.04-2.04-5.39-1.9-7.26,0.3l-29.3,34.6c-0.75,0.89-1.78,1.48-2.93,1.67
		c-7.05,1.2-32.17,3.44-30.32-25.9c0.07-1.06,0.46-2.08,1.14-2.9l38.53-46.18c2.68-3.21,0.4-8.1-3.79-8.1H38.8
		C36.29,58.81,34.17,60.7,33.9,63.2z"/>
</g>
</svg>
